<svg xmlns="http://www.w3.org/2000/svg" viewBox="0 0 100 100" fill="none" stroke="#2B1D15" stroke-width="4.5" stroke-linecap="round" stroke-linejoin="round">
  <!-- Yellow Circular Background (styled like the navbar emblem) -->
  <circle cx="50" cy="50" r="46" fill="#F3C53B" stroke="#2B1D15" stroke-width="3" />
  <!-- Stem -->
  <path d="M50 78 C50 64 51 53 53 42" stroke="#2B1D15" stroke-width="4" />
  <!-- Top Leaf -->
  <path d="M53 42 C45 26 50 14 58 10 C64 15 62 28 53 42 Z" fill="#F3C53B" stroke="#2B1D15" stroke-width="4" />
  <path d="M53 42 C54 28 56 18 58 10" stroke="#2B1D15" stroke-width="2.2" />
  <!-- Left Leaf -->
  <path d="M49 68 C38 64 26 56 24 46 C35 46 44 55 49 68 Z" fill="#F3C53B" stroke="#2B1D15" stroke-width="4" />
  <path d="M49 68 C39 60 30 52 24 46" stroke="#2B1D15" stroke-width="2.2" />
  <!-- Right Leaf -->
  <path d="M51 54 C62 48 74 40 78 34 C72 44 63 50 51 54 Z" fill="#F3C53B" stroke="#2B1D15" stroke-width="4" />
  <path d="M51 54 C60 46 69 40 78 34" stroke="#2B1D15" stroke-width="2.2" />
</svg>
